HIERARCHY
ROOT Hips
{
	OFFSET 0.000000 100.481300 0.000000
	CHANNELS 6 Xposition Yposition Zposition Xrotation Yrotation Zrotation
	JOINT Spine
	{
		OFFSET -0.279200 12.230698 -2.892100
		CHANNELS 3 Xrotation Yrotation Zrotation
		JOINT Spine1
		{
			OFFSET -0.325700 14.269203 -3.374200
			CHANNELS 3 Xrotation Yrotation Zrotation
			JOINT Spine2
			{
				OFFSET -0.372300 16.307602 -0.352600
				CHANNELS 3 Xrotation Yrotation Zrotation
				JOINT Neck
				{
					OFFSET -0.418800 17.814194 8.416900
					CHANNELS 3 Xrotation Yrotation Zrotation
					JOINT Head
					{
						OFFSET 0.000000 7.031097 3.806800
						CHANNELS 3 Xrotation Yrotation Zrotation
						JOINT HeadTop_End
						{
							OFFSET 0.000000 24.646606 12.978600
							CHANNELS 3 Xrotation Yrotation Zrotation
							End Site
							{
								OFFSET 0.000000 27.854965 0.000000
							}
						}
					}
				}
				JOINT LeftShoulder
				{
					OFFSET 16.952999 14.495407 -7.737500
					CHANNELS 3 Xrotation Yrotation Zrotation
					JOINT LeftArm
					{
						OFFSET 9.308998 -2.777710 0.208600
						CHANNELS 3 Xrotation Yrotation Zrotation
						JOINT LeftForeArm
						{
							OFFSET 29.972298 0.000000 0.000000
							CHANNELS 3 Xrotation Yrotation Zrotation
							JOINT LeftHand
							{
								OFFSET 26.026505 0.000000 0.000000
								CHANNELS 3 Xrotation Yrotation Zrotation
								JOINT LeftHandThumb1
								{
									OFFSET 12.240501 -7.147949 9.207150
									CHANNELS 3 Xrotation Yrotation Zrotation
									JOINT LeftHandThumb2
									{
										OFFSET 4.138618 -2.389435 2.389433
										CHANNELS 3 Xrotation Yrotation Zrotation
										JOINT LeftHandThumb3
										{
											OFFSET 2.726913 -1.574387 1.574386
											CHANNELS 3 Xrotation Yrotation Zrotation
											JOINT LeftHandThumb4
											{
												OFFSET 3.941010 -2.275345 2.275342
												CHANNELS 3 Xrotation Yrotation Zrotation
												End Site
												{
													OFFSET -0.005798 5.087799 0.009903
												}
											}
										}
									}
								}
								JOINT LeftHandIndex1
								{
									OFFSET 24.424698 -1.985611 5.953459
									CHANNELS 3 Xrotation Yrotation Zrotation
									JOINT LeftHandIndex2
									{
										OFFSET 6.426697 0.000000 0.000000
										CHANNELS 3 Xrotation Yrotation Zrotation
										JOINT LeftHandIndex3
										{
											OFFSET 5.337898 0.000000 0.000000
											CHANNELS 3 Xrotation Yrotation Zrotation
											JOINT LeftHandIndex4
											{
												OFFSET 4.409401 0.000000 0.000000
												CHANNELS 3 Xrotation Yrotation Zrotation
												End Site
												{
													OFFSET 0.000000 4.409363 0.014373
												}
											}
										}
									}
								}
								JOINT LeftHandMiddle1
								{
									OFFSET 23.810104 0.000000 0.000000
									CHANNELS 3 Xrotation Yrotation Zrotation
									JOINT LeftHandMiddle2
									{
										OFFSET 7.176498 0.000000 0.000000
										CHANNELS 3 Xrotation Yrotation Zrotation
										JOINT LeftHandMiddle3
										{
											OFFSET 6.774902 0.000000 0.000000
											CHANNELS 3 Xrotation Yrotation Zrotation
											JOINT LeftHandMiddle4
											{
												OFFSET 5.403328 0.000000 0.000000
												CHANNELS 3 Xrotation Yrotation Zrotation
												End Site
												{
													OFFSET -0.027702 5.403244 0.017414
												}
											}
										}
									}
								}
								JOINT LeftHandRing1
								{
									OFFSET 22.908401 -0.839279 -6.020567
									CHANNELS 3 Xrotation Yrotation Zrotation
									JOINT LeftHandRing2
									{
										OFFSET 6.337502 0.000000 0.000000
										CHANNELS 3 Xrotation Yrotation Zrotation
										JOINT LeftHandRing3
										{
											OFFSET 5.779297 0.000000 0.000000
											CHANNELS 3 Xrotation Yrotation Zrotation
											JOINT LeftHandRing4
											{
												OFFSET 4.965698 0.000000 0.000000
												CHANNELS 3 Xrotation Yrotation Zrotation
												End Site
												{
													OFFSET 0.000000 4.965668 0.016186
												}
											}
										}
									}
								}
								JOINT LeftHandPinky1
								{
									OFFSET 20.037003 -1.530319 -10.950146
									CHANNELS 3 Xrotation Yrotation Zrotation
									JOINT LeftHandPinky2
									{
										OFFSET 5.254700 0.000000 0.000000
										CHANNELS 3 Xrotation Yrotation Zrotation
										JOINT LeftHandPinky3
										{
											OFFSET 4.810204 0.000000 0.000000
											CHANNELS 3 Xrotation Yrotation Zrotation
											JOINT LeftHandPinky4
											{
												OFFSET 3.647202 0.000000 0.000000
												CHANNELS 3 Xrotation Yrotation Zrotation
												End Site
												{
													OFFSET 0.000000 3.647186 0.011889
												}
											}
										}
									}
								}
							}
						}
					}
				}
				JOINT RightShoulder
				{
					OFFSET -15.141001 14.495407 -7.737500
					CHANNELS 3 Xrotation Yrotation Zrotation
					JOINT RightArm
					{
						OFFSET -9.308998 -2.777710 0.208500
						CHANNELS 3 Xrotation Yrotation Zrotation
						JOINT RightForeArm
						{
							OFFSET -29.972300 0.000000 0.000000
							CHANNELS 3 Xrotation Yrotation Zrotation
							JOINT RightHand
							{
								OFFSET -26.026505 0.000000 0.000000
								CHANNELS 3 Xrotation Yrotation Zrotation
								JOINT RightHandThumb1
								{
									OFFSET -12.240601 -7.148026 9.207092
									CHANNELS 3 Xrotation Yrotation Zrotation
									JOINT RightHandThumb2
									{
										OFFSET -4.138618 -2.389435 2.389433
										CHANNELS 3 Xrotation Yrotation Zrotation
										JOINT RightHandThumb3
										{
											OFFSET -2.726974 -1.574417 1.574421
											CHANNELS 3 Xrotation Yrotation Zrotation
											JOINT RightHandThumb4
											{
												OFFSET -3.941010 -2.275345 2.275343
												CHANNELS 3 Xrotation Yrotation Zrotation
												End Site
												{
													OFFSET 0.005814 5.087799 0.009927
												}
											}
										}
									}
								}
								JOINT RightHandIndex1
								{
									OFFSET -24.424698 -1.985657 5.953444
									CHANNELS 3 Xrotation Yrotation Zrotation
									JOINT RightHandIndex2
									{
										OFFSET -6.426697 0.000000 0.000000
										CHANNELS 3 Xrotation Yrotation Zrotation
										JOINT RightHandIndex3
										{
											OFFSET -5.337898 0.000000 0.000000
											CHANNELS 3 Xrotation Yrotation Zrotation
											JOINT RightHandIndex4
											{
												OFFSET -4.409401 0.000000 0.000000
												CHANNELS 3 Xrotation Yrotation Zrotation
												End Site
												{
													OFFSET 0.000000 4.409363 0.014408
												}
											}
										}
									}
								}
								JOINT RightHandMiddle1
								{
									OFFSET -23.810097 0.000000 0.000000
									CHANNELS 3 Xrotation Yrotation Zrotation
									JOINT RightHandMiddle2
									{
										OFFSET -7.176498 0.000000 0.000000
										CHANNELS 3 Xrotation Yrotation Zrotation
										JOINT RightHandMiddle3
										{
											OFFSET -6.774902 0.000000 0.000000
											CHANNELS 3 Xrotation Yrotation Zrotation
											JOINT RightHandMiddle4
											{
												OFFSET -5.403328 0.000000 0.000000
												CHANNELS 3 Xrotation Yrotation Zrotation
												End Site
												{
													OFFSET 0.027702 5.403244 0.017457
												}
											}
										}
									}
								}
								JOINT RightHandRing1
								{
									OFFSET -22.908302 -0.839325 -6.020576
									CHANNELS 3 Xrotation Yrotation Zrotation
									JOINT RightHandRing2
									{
										OFFSET -6.337502 0.000000 0.000000
										CHANNELS 3 Xrotation Yrotation Zrotation
										JOINT RightHandRing3
										{
											OFFSET -5.779297 0.000000 0.000000
											CHANNELS 3 Xrotation Yrotation Zrotation
											JOINT RightHandRing4
											{
												OFFSET -4.965698 0.000000 0.000000
												CHANNELS 3 Xrotation Yrotation Zrotation
												End Site
												{
													OFFSET 0.000000 4.965668 0.016226
												}
											}
										}
									}
								}
								JOINT RightHandPinky1
								{
									OFFSET -20.037003 -1.530334 -10.950259
									CHANNELS 3 Xrotation Yrotation Zrotation
									JOINT RightHandPinky2
									{
										OFFSET -5.254700 0.000000 0.000000
										CHANNELS 3 Xrotation Yrotation Zrotation
										JOINT RightHandPinky3
										{
											OFFSET -4.810204 0.000000 0.000000
											CHANNELS 3 Xrotation Yrotation Zrotation
											JOINT RightHandPinky4
											{
												OFFSET -3.647202 0.000000 0.000000
												CHANNELS 3 Xrotation Yrotation Zrotation
												End Site
												{
													OFFSET 0.000000 3.647186 0.011917
												}
											}
										}
									}
								}
							}
						}
					}
				}
			}
		}
	}
	JOINT LeftUpLeg
	{
		OFFSET 15.427100 -6.655098 0.678600
		CHANNELS 3 Xrotation Yrotation Zrotation
		JOINT LeftLeg
		{
			OFFSET 4.081073 -39.591068 13.024000
			CHANNELS 3 Xrotation Yrotation Zrotation
			JOINT LeftFoot
			{
				OFFSET -4.081074 -37.707932 -15.979700
				CHANNELS 3 Xrotation Yrotation Zrotation
				JOINT LeftToeBase
				{
					OFFSET 5.346399 -15.068900 20.645000
					CHANNELS 3 Xrotation Yrotation Zrotation
					JOINT LeftToe_End
					{
						OFFSET 2.754700 0.931300 11.300900
						CHANNELS 3 Xrotation Yrotation Zrotation
						End Site
						{
							OFFSET 0.000000 11.669021 0.000000
						}
					}
				}
			}
		}
	}
	JOINT RightUpLeg
	{
		OFFSET -15.569500 -6.655098 0.678600
		CHANNELS 3 Xrotation Yrotation Zrotation
		JOINT RightLeg
		{
			OFFSET -4.081825 -39.591045 13.023800
			CHANNELS 3 Xrotation Yrotation Zrotation
			JOINT RightFoot
			{
				OFFSET 4.081824 -37.707954 -15.979600
				CHANNELS 3 Xrotation Yrotation Zrotation
				JOINT RightToeBase
				{
					OFFSET -5.346400 -15.068900 20.645000
					CHANNELS 3 Xrotation Yrotation Zrotation
					JOINT RightToe_End
					{
						OFFSET -2.754700 0.931300 11.300900
						CHANNELS 3 Xrotation Yrotation Zrotation
						End Site
						{
							OFFSET 0.000000 11.669021 0.000000
						}
					}
				}
			}
		}
	}
}
MOTION
Frames: 4
Frame Time: 0.033333
-0.291548 79.817139 0.116800 -2.715784 -11.020104 5.421615 0.323006 -7.769113 -7.409672 7.908576 -1.284989 -2.368041 7.875018 -1.255877 -2.482602 6.175483 3.748883 -0.493830 0.028956 20.970532 -6.301749 -0.000001 0.000000 -0.000000 1.029785 -8.229557 0.848667 -8.225377 -22.664536 -70.647488 -0.000005 -18.475189 0.000003 -0.610796 4.639542 -1.244647 -3.918455 21.714327 13.619390 4.619972 16.283304 1.366836 0.085966 8.981033 3.251607 -0.000002 -0.000000 -0.000000 0.083038 1.068246 -8.888634 0.083038 1.068266 -8.888609 0.083032 1.068258 -8.888620 0.000002 0.000001 -0.000001 0.094873 1.141343 -9.502405 0.134484 1.356941 -11.319714 0.142146 1.394634 -11.638472 0.000004 -0.000001 -0.000002 0.161013 1.483244 -12.389860 0.226706 1.755732 -14.714314 0.240260 1.806495 -15.150201 -0.000001 0.000002 0.000002 1.588237 6.003718 -17.658223 0.342286 -1.912433 -18.565904 0.341292 2.144863 -18.079991 0.000001 -0.000001 0.000001 1.385254 6.688657 8.299611 13.361509 10.897804 57.910442 -0.000023 113.164261 0.000015 2.607411 -25.401595 7.928414 -3.430856 -18.334248 -12.490458 5.383144 -16.953962 -0.794299 -0.770314 -5.341376 -2.677108 -0.000001 0.000002 -0.000001 0.152310 -1.450246 11.990063 0.152297 -1.450232 11.990078 0.152305 -1.450246 11.990066 0.000002 0.000003 -0.000001 0.131367 -1.347918 11.132510 0.185030 -1.596511 13.220866 0.196103 -1.642908 13.612459 -0.000000 -0.000002 -0.000000 0.175432 -1.555122 12.871896 0.246991 -1.840321 15.286911 0.261750 -1.893449 15.739800 -0.000002 0.000000 -0.000002 0.325182 -2.105457 17.557978 0.325195 -2.105468 17.557944 0.325191 -2.105446 17.557973 0.000005 0.000001 0.000000 -3.643351 8.129903 -11.445188 43.944098 8.473853 3.239929 -37.217089 2.894976 -1.317420 -2.854856 -0.000003 -0.000002 0.000000 -0.000000 -0.000000 -42.559903 8.872927 10.437490 73.228111 -11.946751 -10.800379 20.399492 -4.027032 9.144428 -42.529413 -2.238366 5.395061 -0.000000 0.000003 -0.000000 
-0.284734 80.043182 0.826033 -3.360333 -11.813677 5.710662 1.764036 -4.749793 -6.075585 8.672042 -0.925200 -3.759367 8.642120 -0.920648 -3.829458 5.563710 3.227704 0.374550 -0.427083 18.907294 -5.571173 -0.000002 -0.000000 -0.000000 1.203003 -9.015751 2.827712 1.465511 -22.229020 -66.437578 -0.000005 -35.074367 0.000003 -0.255680 5.491927 -1.191531 -3.918462 21.714329 13.619397 4.619972 16.283297 1.366838 0.085969 8.981025 3.251603 -0.000002 -0.000003 -0.000002 0.083031 1.068243 -8.888634 0.083040 1.068268 -8.888611 0.083040 1.068259 -8.888615 -0.000002 -0.000001 -0.000002 0.094867 1.141343 -9.502404 0.134488 1.356941 -11.319714 0.142143 1.394634 -11.638473 0.000002 0.000000 -0.000001 0.161011 1.483246 -12.389861 0.226702 1.755731 -14.714316 0.240256 1.806493 -15.150198 0.000001 0.000000 0.000004 1.588230 6.003719 -17.658221 0.342283 -1.912433 -18.565904 0.341290 2.144864 -18.079991 -0.000002 0.000000 -0.000004 1.364204 6.410868 8.334816 3.658743 17.076052 55.459258 -0.000005 109.650696 -0.000004 3.763613 -22.107179 9.948860 -3.430858 -18.334249 -12.490457 5.383141 -16.953962 -0.794296 -0.770311 -5.341375 -2.677109 0.000001 0.000001 -0.000000 0.152306 -1.450245 11.990062 0.152296 -1.450233 11.990077 0.152311 -1.450249 11.990062 -0.000001 0.000003 0.000001 0.131366 -1.347918 11.132510 0.185036 -1.596514 13.220864 0.196107 -1.642908 13.612459 -0.000002 0.000001 0.000001 0.175431 -1.555125 12.871900 0.246985 -1.840318 15.286909 0.261748 -1.893449 15.739800 -0.000000 -0.000000 0.000001 0.325175 -2.105458 17.557976 0.325193 -2.105475 17.557944 0.325183 -2.105454 17.557971 0.000000 -0.000002 -0.000001 -1.064554 10.952847 -11.767369 42.580116 6.903803 3.982809 -37.409516 1.843620 -1.075311 -3.332211 0.000001 -0.000000 -0.000000 0.000000 0.000000 -43.648898 5.983957 8.638825 72.707234 -11.840404 -10.649930 25.191993 -4.260512 7.820919 -45.292791 -3.061649 5.584190 -0.000000 -0.000000 0.000000 
-0.168558 81.974945 0.825812 -3.965147 -12.476949 5.410768 4.557077 -0.854540 -3.417132 8.826011 -0.397836 -5.378117 8.825804 -0.445601 -5.377394 5.206237 2.392956 1.390371 0.247016 15.439392 -4.879140 0.000002 0.000001 -0.000000 1.312112 -9.100539 4.858235 11.939222 -21.038338 -61.624350 -0.000009 -53.242438 -0.000010 1.229619 5.171997 -1.313958 -3.918460 21.714329 13.619392 4.619970 16.283301 1.366839 0.085969 8.981028 3.251601 -0.000001 -0.000001 0.000000 0.083031 1.068247 -8.888635 0.083037 1.068268 -8.888610 0.083037 1.068257 -8.888619 0.000001 0.000002 0.000000 0.094865 1.141343 -9.502404 0.134486 1.356942 -11.319714 0.142143 1.394633 -11.638475 0.000001 -0.000002 -0.000002 0.161009 1.483245 -12.389862 0.226709 1.755733 -14.714318 0.240256 1.806493 -15.150201 -0.000002 0.000001 -0.000001 1.588230 6.003718 -17.658223 0.342282 -1.912433 -18.565904 0.341290 2.144866 -18.079991 -0.000002 0.000002 0.000001 1.326713 6.108733 8.233884 -4.973232 22.848581 55.922328 0.000152 100.691462 -0.000144 6.192625 -22.146697 12.432006 -3.430858 -18.334251 -12.490457 5.383147 -16.953962 -0.794304 -0.770309 -5.341371 -2.677106 0.000000 0.000001 -0.000001 0.152304 -1.450245 11.990063 0.152300 -1.450236 11.990075 0.152309 -1.450246 11.990064 0.000000 0.000000 0.000001 0.131365 -1.347919 11.132511 0.185028 -1.596516 13.220863 0.196110 -1.642909 13.612459 0.000001 0.000001 0.000001 0.175433 -1.555126 12.871895 0.246987 -1.840318 15.286914 0.261753 -1.893454 15.739795 -0.000002 0.000000 -0.000001 0.325178 -2.105458 17.557978 0.325195 -2.105473 17.557944 0.325185 -2.105455 17.557971 0.000002 0.000000 -0.000001 0.413305 13.768045 -12.226676 40.219521 4.766632 5.989218 -33.847655 1.163763 -0.738820 -4.672866 -0.000000 -0.000000 -0.000000 -0.000000 -0.000000 -41.606282 1.457153 6.048186 68.985396 -11.661442 -10.485320 21.122555 -5.558047 4.138857 -38.268245 -2.313693 6.141658 0.000000 0.000000 0.000000 
-0.099975 84.443810 0.072946 -4.132243 -12.400972 4.171055 7.483765 3.194055 -0.073166 8.455210 0.191367 -6.543718 8.507034 0.085209 -6.474199 5.356315 1.371976 2.319339 2.476989 11.069338 -4.285167 -0.000002 0.000000 0.000000 1.317438 -8.525601 6.551241 19.361769 -20.771104 -57.551249 -0.000010 -67.791724 -0.000001 3.372147 4.479844 -1.465033 -3.918456 21.714329 13.619401 4.619978 16.283301 1.366840 0.085963 8.981028 3.251605 -0.000004 0.000000 0.000000 0.083030 1.068245 -8.888630 0.083037 1.068269 -8.888610 0.083035 1.068256 -8.888618 0.000001 0.000002 0.000002 0.094868 1.141344 -9.502402 0.134491 1.356944 -11.319716 0.142144 1.394634 -11.638472 -0.000003 -0.000002 0.000001 0.161012 1.483245 -12.389858 0.226709 1.755730 -14.714318 0.240256 1.806493 -15.150198 -0.000001 -0.000001 -0.000000 1.588234 6.003720 -17.658223 0.342284 -1.912435 -18.565902 0.341288 2.144860 -18.079994 0.000001 -0.000001 -0.000000 1.337261 6.276973 8.182569 -13.865364 26.766398 59.397196 -0.000118 85.197690 0.000140 7.685996 -26.613731 14.145486 -3.430856 -18.334253 -12.490458 5.383142 -16.953964 -0.794297 -0.770309 -5.341376 -2.677110 0.000001 0.000002 -0.000001 0.152307 -1.450246 11.990062 0.152296 -1.450233 11.990077 0.152306 -1.450246 11.990067 0.000000 -0.000001 -0.000001 0.131366 -1.347920 11.132507 0.185030 -1.596514 13.220863 0.196107 -1.642910 13.612457 -0.000002 -0.000002 -0.000000 0.175432 -1.555127 12.871894 0.246986 -1.840323 15.286914 0.261748 -1.893451 15.739797 -0.000001 -0.000001 -0.000001 0.325181 -2.105462 17.557971 0.325195 -2.105472 17.557944 0.325181 -2.105446 17.557973 -0.000003 -0.000001 -0.000001 -3.956536 15.439848 -10.820822 42.995006 5.744411 8.666894 -24.849934 -0.100102 -2.530785 -11.839546 0.000001 -0.000002 0.000000 0.000000 0.000000 -37.101424 -4.349560 3.790875 62.057678 -11.382150 -10.395767 10.654479 -4.758825 0.197435 -26.135511 -0.857070 5.621442 -0.000000 -0.000000 -0.000000 
